# xmcd
#
# Track frame offsets:
#	150
#	49909
#	94383
#	132900
#	160685
#	185779
#	248330
#
# Disc length: 3663 seconds
#
# Revision: 0
# Processed by: cddbd v1.4PL0 Copyright (c) Steve Scherf et al.
# Submitted via: EasyCDDAExtractor 4.6.9.1
#
DISCID=590e4d07
DTITLE=String Cheese Incident - 02-09-21 Disc 1
DYEAR=2002
DGENRE=Bluegrass
TTITLE0=Close Your Eyes
TTITLE1=Little Hands
TTITLE2=Dudley's Kitchen
TTITLE3=Barstool
TTITLE4=Come as You Are
TTITLE5=Bend Down Low
TTITLE6=Come as You Are
EXTD=University of Utah Union Plaza\nTaped by\nJoe Billerback of Phoenix\njbil
EXTD=lerb@cox.net\nNeumann KM-184's>Shure FP-24>Tascam DAP1\nTagged by MaLaCoi
EXTD=D
EXTT0=
EXTT1=
EXTT2=
EXTT3=
EXTT4=
EXTT5=
EXTT6=
PLAYORDER=
